<?xml version="1.0" encoding="UTF-8"?>
<svg version="1.1" xmlns="http://www.w3.org/2000/svg" width="207" height="207">
<path d="M0 0 C68.31 0 136.62 0 207 0 C207 68.31 207 136.62 207 207 C138.69 207 70.38 207 0 207 C0 138.69 0 70.38 0 0 Z " fill="#FCFCFC" transform="translate(0,0)"/>
<path d="M0 0 C5.5202696 3.83544764 8.86787836 7.53535504 11 14 C11.38031673 17.39465046 11.38031673 17.39465046 11.38768005 21.00056458 C11.39306559 21.66919248 11.39845113 22.33782038 11.40399987 23.02670974 C11.41821039 25.248223 11.41119322 27.46913454 11.40405273 29.69067383 C11.40976005 31.291229 11.41672571 32.8917801 11.42485046 34.49232483 C11.44275989 38.82721318 11.44161734 43.16189885 11.43590808 47.49681306 C11.43281215 51.12233036 11.43891337 54.74780897 11.44494683 58.37332076 C11.45898399 66.93128645 11.45743829 75.4891523 11.44604492 84.04711914 C11.43457212 92.85914274 11.44862706 101.67086168 11.4754414 110.48284513 C11.49763809 118.06271939 11.50422662 125.64249831 11.49836498 133.22240275 C11.49500276 137.74318435 11.49736108 142.26377082 11.51461601 146.78452492 C11.53014585 151.03888543 11.52606315 155.29279696 11.50731087 159.54714012 C11.50364122 161.10228773 11.50668575 162.65746904 11.51719666 164.21258545 C11.63352831 182.8580427 11.63352831 182.8580427 5.29175472 189.89568806 C3.6122358 191.44930737 1.90287644 192.73280976 0 194 C-0.928125 194.61875 -1.85625 195.2375 -2.8125 195.875 C-8.40252746 197.84795087 -14.25360613 197.95899276 -19.8125 195.75 C-26.97873203 191.8155981 -29.92989347 187.49889851 -33 180 C-33 179.34 -33 178.68 -33 178 C-33.845625 178.04640625 -34.69125 178.0928125 -35.5625 178.140625 C-43.98152622 178.40850311 -49.65983607 178.04205166 -55.93359375 172.19921875 C-60.61733475 167.1844025 -64.1187549 162.664437 -63.890625 155.625 C-63.82359375 154.3875 -63.7565625 153.15 -63.6875 151.875 C-63.37669143 147.13732013 -63.37669143 147.13732013 -65.55859375 143.23046875 C-67.6171013 142.02692544 -67.6171013 142.02692544 -69.8359375 141.05859375 C-75.64926606 138.21488971 -79.20432762 131.59134476 -82 126 C-84.08259879 117.58685256 -83.84903856 108.84169796 -80 101 C-76.49874447 95.34567354 -72.49234689 90.16411563 -66 88 C-66.28875 87.278125 -66.5775 86.55625 -66.875 85.8125 C-67.24625 84.884375 -67.6175 83.95625 -68 83 C-68.52013672 81.8553125 -68.52013672 81.8553125 -69.05078125 80.6875 C-71.31871502 74.26635419 -70.92601628 66.13397991 -68.1796875 59.8828125 C-64.73490794 54.38485306 -60.22876909 49.98279145 -54 48 C-53.01 48 -52.02 48 -51 48 C-51.33 47.01 -51.66 46.02 -52 45 C-52.99032199 37.28963593 -51.44036013 31.37234375 -47 25 C-43.8293584 21.54169939 -40.76934445 18.56297323 -36.25 17.125 C-32.89719218 15.44859609 -32.44592215 12.76112612 -31.08203125 9.38671875 C-28.72553574 4.1888171 -25.4349721 0.30101765 -20.125 -1.9375 C-13.0516026 -4.1025513 -6.51209643 -3.56464853 0 0 Z " fill="#020202" transform="translate(87,7)"/>
<path d="M0 0 C4.92480342 3.99059012 6.10346979 8.97852843 7 15 C7.99 15.185625 8.98 15.37125 10 15.5625 C15.77983109 17.25072652 20.10576774 21.13477473 23.39453125 26.109375 C26.16878055 31.6382676 26.67341704 36.88404852 26 43 C25.67 43.99 25.34 44.98 25 46 C25.56847656 46.13535156 26.13695312 46.27070312 26.72265625 46.41015625 C34.21863729 48.50002075 38.70001627 52.11810258 42.6640625 58.80859375 C45.33868743 65.19797553 45.20844699 72.63481081 42.875 79.1328125 C41.68422773 81.50759129 40.43958019 83.7686507 39 86 C40.12921875 86.41572266 40.12921875 86.41572266 41.28125 86.83984375 C48.59622468 89.96132001 52.96619731 95.79158451 56 103 C58.58234654 113.32938617 57.06434226 122.14593168 51.6796875 131.2265625 C48.3232249 136.12369646 44.39327403 139.47342117 39 142 C38.34 142 37.68 142 37 142 C37.33 142.99 37.66 143.98 38 145 C38.90035537 153.45047827 37.90845014 159.96757671 33 167 C31.09359079 169.18565788 29.48704059 170.34197294 27 172 C26.43796875 172.39058594 25.8759375 172.78117188 25.296875 173.18359375 C19.190579 176.89098775 12.94599612 176.38118271 6 176 C5.87238281 176.92554688 5.74476563 177.85109375 5.61328125 178.8046875 C4.5692271 184.24440913 1.22118293 188.50244843 -3 192 C-8.59864696 195.1352423 -13.6250859 195.88067887 -20 195 C-26.09125628 193.18879459 -30.70144434 189.41002049 -34 184 C-37.80617269 176.3119585 -37.43100998 168.54783642 -37.40405273 160.1640625 C-37.40976146 158.56011481 -37.41672767 156.95617117 -37.42485046 155.35223389 C-37.4427398 151.0134069 -37.44162169 146.67478261 -37.43590808 142.33592987 C-37.43281064 138.70768856 -37.43891473 135.07948588 -37.44494683 131.45125008 C-37.45897605 122.88999319 -37.45744362 114.32883614 -37.44604492 105.76757812 C-37.43456017 96.94697359 -37.44864898 88.12667298 -37.4754414 79.30610847 C-37.49761715 71.72030057 -37.5042317 64.13458794 -37.49836498 56.54874992 C-37.49499931 52.02357576 -37.49738479 47.49859649 -37.51461601 42.97344971 C-37.53011346 38.71826113 -37.52609881 34.46352214 -37.50731087 30.20835114 C-37.50363297 28.65075006 -37.50671012 27.09311546 -37.51719666 25.53554535 C-37.57556854 16.14563742 -37.15412552 9.44399097 -31.2890625 1.7578125 C-21.92455929 -7.43083149 -10.68290902 -7.17253927 0 0 Z " fill="#010101" transform="translate(147,9)"/>
</svg>
